<mxfile host="app.diagrams.net" modified="2023-06-20T12:26:02.731Z" agent="Mozilla/5.0 (Windows NT 10.0; Win64; x64) AppleWebKit/537.36 (KHTML, like Gecko) Chrome/114.0.0.0 Safari/537.36" etag="t5W4m-f1epVfuaJMrqrC" version="21.5.0" type="github">
  <diagram name="Page-1" id="XgMOEscwx5hZcMK_4aCy">
    <mxGraphModel dx="2284" dy="756" grid="1" gridSize="10" guides="1" tooltips="1" connect="1" arrows="1" fold="1" page="1" pageScale="1" pageWidth="850" pageHeight="1100" background="none" math="0" shadow="0">
      <root>
        <mxCell id="0" />
        <mxCell id="1" parent="0" />
        <mxCell id="GsBKsf8TpQu5gTxtHSTQ-17" style="edgeStyle=orthogonalEdgeStyle;rounded=0;orthogonalLoop=1;jettySize=auto;html=1;entryX=0;entryY=0.5;entryDx=0;entryDy=0;" edge="1" parent="1" source="GsBKsf8TpQu5gTxtHSTQ-1" target="GsBKsf8TpQu5gTxtHSTQ-10">
          <mxGeometry relative="1" as="geometry">
            <mxPoint x="-45" y="480" as="targetPoint" />
          </mxGeometry>
        </mxCell>
        <mxCell id="GsBKsf8TpQu5gTxtHSTQ-18" style="edgeStyle=orthogonalEdgeStyle;rounded=0;orthogonalLoop=1;jettySize=auto;html=1;entryX=0;entryY=0.5;entryDx=0;entryDy=0;" edge="1" parent="1" source="GsBKsf8TpQu5gTxtHSTQ-1" target="GsBKsf8TpQu5gTxtHSTQ-2">
          <mxGeometry relative="1" as="geometry">
            <Array as="points">
              <mxPoint x="-177" y="460" />
              <mxPoint x="-177" y="350" />
            </Array>
          </mxGeometry>
        </mxCell>
        <mxCell id="GsBKsf8TpQu5gTxtHSTQ-22" style="edgeStyle=orthogonalEdgeStyle;rounded=0;orthogonalLoop=1;jettySize=auto;html=1;entryX=0;entryY=0.5;entryDx=0;entryDy=0;" edge="1" parent="1" source="GsBKsf8TpQu5gTxtHSTQ-1" target="GsBKsf8TpQu5gTxtHSTQ-20">
          <mxGeometry relative="1" as="geometry">
            <Array as="points">
              <mxPoint x="-177" y="500" />
              <mxPoint x="-177" y="610" />
            </Array>
          </mxGeometry>
        </mxCell>
        <mxCell id="GsBKsf8TpQu5gTxtHSTQ-1" value="Client" style="rounded=1;whiteSpace=wrap;html=1;" vertex="1" parent="1">
          <mxGeometry x="-460" y="450" width="120" height="60" as="geometry" />
        </mxCell>
        <mxCell id="GsBKsf8TpQu5gTxtHSTQ-21" value="" style="edgeStyle=orthogonalEdgeStyle;rounded=0;orthogonalLoop=1;jettySize=auto;html=1;" edge="1" parent="1" source="GsBKsf8TpQu5gTxtHSTQ-2" target="GsBKsf8TpQu5gTxtHSTQ-5">
          <mxGeometry relative="1" as="geometry" />
        </mxCell>
        <mxCell id="GsBKsf8TpQu5gTxtHSTQ-33" style="edgeStyle=orthogonalEdgeStyle;rounded=0;orthogonalLoop=1;jettySize=auto;html=1;entryX=0.5;entryY=1;entryDx=0;entryDy=0;entryPerimeter=0;" edge="1" parent="1" source="GsBKsf8TpQu5gTxtHSTQ-2" target="GsBKsf8TpQu5gTxtHSTQ-24">
          <mxGeometry relative="1" as="geometry">
            <Array as="points">
              <mxPoint x="40" y="300" />
              <mxPoint x="40" y="300" />
            </Array>
          </mxGeometry>
        </mxCell>
        <mxCell id="GsBKsf8TpQu5gTxtHSTQ-2" value="user-service" style="rounded=1;whiteSpace=wrap;html=1;strokeColor=#007FFF;strokeWidth=2;" vertex="1" parent="1">
          <mxGeometry x="-19" y="320" width="120" height="60" as="geometry" />
        </mxCell>
        <mxCell id="GsBKsf8TpQu5gTxtHSTQ-32" style="edgeStyle=orthogonalEdgeStyle;rounded=0;orthogonalLoop=1;jettySize=auto;html=1;entryX=0.5;entryY=1;entryDx=0;entryDy=0;entryPerimeter=0;" edge="1" parent="1" source="GsBKsf8TpQu5gTxtHSTQ-5" target="GsBKsf8TpQu5gTxtHSTQ-25">
          <mxGeometry relative="1" as="geometry" />
        </mxCell>
        <mxCell id="GsBKsf8TpQu5gTxtHSTQ-5" value="asset-manager" style="rounded=1;whiteSpace=wrap;html=1;" vertex="1" parent="1">
          <mxGeometry x="221" y="320" width="120" height="60" as="geometry" />
        </mxCell>
        <mxCell id="GsBKsf8TpQu5gTxtHSTQ-23" value="" style="edgeStyle=orthogonalEdgeStyle;rounded=0;orthogonalLoop=1;jettySize=auto;html=1;" edge="1" parent="1" source="GsBKsf8TpQu5gTxtHSTQ-6" target="GsBKsf8TpQu5gTxtHSTQ-11">
          <mxGeometry relative="1" as="geometry" />
        </mxCell>
        <mxCell id="GsBKsf8TpQu5gTxtHSTQ-6" value="event-service" style="rounded=1;whiteSpace=wrap;html=1;" vertex="1" parent="1">
          <mxGeometry x="219" y="580" width="120" height="60" as="geometry" />
        </mxCell>
        <mxCell id="GsBKsf8TpQu5gTxtHSTQ-28" style="edgeStyle=orthogonalEdgeStyle;rounded=0;orthogonalLoop=1;jettySize=auto;html=1;entryX=0;entryY=0.5;entryDx=0;entryDy=0;" edge="1" parent="1" source="GsBKsf8TpQu5gTxtHSTQ-7" target="GsBKsf8TpQu5gTxtHSTQ-27">
          <mxGeometry relative="1" as="geometry">
            <Array as="points">
              <mxPoint x="-264" y="395" />
            </Array>
          </mxGeometry>
        </mxCell>
        <mxCell id="GsBKsf8TpQu5gTxtHSTQ-7" value="admin api" style="rounded=1;whiteSpace=wrap;html=1;" vertex="1" parent="1">
          <mxGeometry x="-324" y="260" width="120" height="60" as="geometry" />
        </mxCell>
        <mxCell id="GsBKsf8TpQu5gTxtHSTQ-9" value="&lt;span style=&quot;&quot;&gt;&lt;b&gt;&lt;font style=&quot;font-size: 20px;&quot;&gt;API-GW&lt;/font&gt;&lt;/b&gt;&lt;br&gt;&lt;/span&gt;" style="rounded=1;whiteSpace=wrap;html=1;strokeWidth=2;fontSize=12;rotation=-90;fillStyle=zigzag-line;fillColor=default;strokeColor=#82B366;shadow=0;glass=0;sketch=0;gradientColor=none;labelBackgroundColor=default;labelBorderColor=none;" vertex="1" parent="1">
          <mxGeometry x="-390" y="450" width="252" height="72" as="geometry" />
        </mxCell>
        <mxCell id="GsBKsf8TpQu5gTxtHSTQ-30" style="edgeStyle=orthogonalEdgeStyle;rounded=0;orthogonalLoop=1;jettySize=auto;html=1;entryX=0;entryY=0.5;entryDx=0;entryDy=0;entryPerimeter=0;" edge="1" parent="1" source="GsBKsf8TpQu5gTxtHSTQ-10" target="GsBKsf8TpQu5gTxtHSTQ-29">
          <mxGeometry relative="1" as="geometry">
            <Array as="points">
              <mxPoint x="200" y="500" />
              <mxPoint x="200" y="500" />
            </Array>
          </mxGeometry>
        </mxCell>
        <mxCell id="GsBKsf8TpQu5gTxtHSTQ-10" value="fund-service" style="rounded=1;whiteSpace=wrap;html=1;" vertex="1" parent="1">
          <mxGeometry x="-20" y="450" width="120" height="60" as="geometry" />
        </mxCell>
        <mxCell id="GsBKsf8TpQu5gTxtHSTQ-11" value="" style="strokeColor=#dddddd;shadow=1;strokeWidth=1;rounded=1;absoluteArcSize=1;arcSize=2;" vertex="1" parent="1">
          <mxGeometry x="219" y="710" width="120" height="60" as="geometry" />
        </mxCell>
        <mxCell id="GsBKsf8TpQu5gTxtHSTQ-12" value="Google&#xa;Analytics" style="sketch=0;dashed=0;connectable=0;html=1;fillColor=#5184F3;strokeColor=none;shape=mxgraph.gcp2.google_analytics;part=1;labelPosition=right;verticalLabelPosition=middle;align=left;verticalAlign=middle;spacingLeft=5;fontColor=#999999;fontSize=12;" vertex="1" parent="GsBKsf8TpQu5gTxtHSTQ-11">
          <mxGeometry width="45" height="45" relative="1" as="geometry">
            <mxPoint x="5" y="7" as="offset" />
          </mxGeometry>
        </mxCell>
        <mxCell id="GsBKsf8TpQu5gTxtHSTQ-31" style="edgeStyle=orthogonalEdgeStyle;rounded=0;orthogonalLoop=1;jettySize=auto;html=1;entryX=1.05;entryY=0.15;entryDx=0;entryDy=0;entryPerimeter=0;" edge="1" parent="1" source="GsBKsf8TpQu5gTxtHSTQ-15" target="GsBKsf8TpQu5gTxtHSTQ-10">
          <mxGeometry relative="1" as="geometry" />
        </mxCell>
        <mxCell id="GsBKsf8TpQu5gTxtHSTQ-15" value="&lt;font style=&quot;font-size: 16px;&quot; color=&quot;#ffffff&quot;&gt;&lt;b&gt;GovernmentDB&lt;/b&gt;&lt;/font&gt;" style="sketch=0;outlineConnect=0;fontColor=#232F3E;gradientColor=none;fillColor=#3F8624;strokeColor=none;dashed=0;verticalLabelPosition=bottom;verticalAlign=top;align=center;html=1;fontSize=12;fontStyle=0;aspect=fixed;pointerEvents=1;shape=mxgraph.aws4.iot_analytics_data_store;" vertex="1" parent="1">
          <mxGeometry x="350" y="420" width="54.69" height="79" as="geometry" />
        </mxCell>
        <mxCell id="GsBKsf8TpQu5gTxtHSTQ-34" style="edgeStyle=orthogonalEdgeStyle;rounded=0;orthogonalLoop=1;jettySize=auto;html=1;entryX=0.5;entryY=0;entryDx=0;entryDy=0;entryPerimeter=0;" edge="1" parent="1" source="GsBKsf8TpQu5gTxtHSTQ-20" target="GsBKsf8TpQu5gTxtHSTQ-26">
          <mxGeometry relative="1" as="geometry">
            <Array as="points">
              <mxPoint x="40" y="650" />
              <mxPoint x="40" y="650" />
            </Array>
          </mxGeometry>
        </mxCell>
        <mxCell id="GsBKsf8TpQu5gTxtHSTQ-20" value="chat-service" style="rounded=1;whiteSpace=wrap;html=1;" vertex="1" parent="1">
          <mxGeometry x="-19" y="580" width="120" height="60" as="geometry" />
        </mxCell>
        <mxCell id="GsBKsf8TpQu5gTxtHSTQ-24" value="&lt;p style=&quot;text-align: right; line-height: 0%;&quot;&gt;&lt;b&gt;&lt;font style=&quot;font-size: 16px;&quot;&gt;users&lt;/font&gt;&lt;/b&gt;&lt;br&gt;&lt;/p&gt;" style="outlineConnect=0;dashed=0;verticalLabelPosition=bottom;verticalAlign=top;align=center;html=1;shape=mxgraph.aws3.dynamo_db;fillColor=#2E73B8;gradientColor=none;" vertex="1" parent="1">
          <mxGeometry x="14.5" y="200" width="51" height="60" as="geometry" />
        </mxCell>
        <mxCell id="GsBKsf8TpQu5gTxtHSTQ-25" value="&lt;font size=&quot;1&quot; style=&quot;&quot;&gt;&lt;b style=&quot;font-size: 16px;&quot;&gt;assets&lt;/b&gt;&lt;/font&gt;" style="outlineConnect=0;dashed=0;verticalLabelPosition=bottom;verticalAlign=top;align=center;html=1;shape=mxgraph.aws3.dynamo_db;fillColor=#2E73B8;gradientColor=none;" vertex="1" parent="1">
          <mxGeometry x="255.5" y="200" width="51" height="60" as="geometry" />
        </mxCell>
        <mxCell id="GsBKsf8TpQu5gTxtHSTQ-26" value="&lt;b&gt;&lt;font style=&quot;font-size: 16px;&quot;&gt;chat&lt;/font&gt;&lt;/b&gt;" style="outlineConnect=0;dashed=0;verticalLabelPosition=bottom;verticalAlign=top;align=center;html=1;shape=mxgraph.aws3.dynamo_db;fillColor=#2E73B8;gradientColor=none;" vertex="1" parent="1">
          <mxGeometry x="14.5" y="690" width="51" height="60" as="geometry" />
        </mxCell>
        <mxCell id="GsBKsf8TpQu5gTxtHSTQ-27" value="&lt;font size=&quot;1&quot;&gt;blacklist api&lt;/font&gt;" style="rounded=1;whiteSpace=wrap;html=1;strokeColor=#007FFF;strokeWidth=2;fontSize=15;glass=0;shadow=0;sketch=0;" vertex="1" parent="1">
          <mxGeometry x="1" y="380" width="80" height="30" as="geometry" />
        </mxCell>
        <mxCell id="GsBKsf8TpQu5gTxtHSTQ-29" value="&lt;b&gt;&lt;font style=&quot;font-size: 16px;&quot;&gt;funds&lt;/font&gt;&lt;/b&gt;" style="outlineConnect=0;dashed=0;verticalLabelPosition=bottom;verticalAlign=top;align=center;html=1;shape=mxgraph.aws3.dynamo_db;fillColor=#2E73B8;gradientColor=none;" vertex="1" parent="1">
          <mxGeometry x="251.5" y="470" width="51" height="60" as="geometry" />
        </mxCell>
        <mxCell id="GsBKsf8TpQu5gTxtHSTQ-38" value="&lt;font style=&quot;font-size: 20px;&quot;&gt;&lt;b style=&quot;font-size: 30px;&quot;&gt;Shekel Master&lt;/b&gt;&lt;br&gt;&lt;font style=&quot;font-size: 20px;&quot;&gt;Backend&amp;nbsp;&lt;/font&gt;&lt;/font&gt;&lt;font style=&quot;font-size: 20px;&quot;&gt;main flows&lt;/font&gt;&lt;font size=&quot;1&quot; style=&quot;&quot;&gt;&lt;b style=&quot;font-size: 30px;&quot;&gt;&lt;br&gt;&lt;/b&gt;&lt;/font&gt;" style="text;html=1;align=center;verticalAlign=middle;resizable=0;points=[];autosize=1;strokeColor=none;fillColor=none;" vertex="1" parent="1">
          <mxGeometry x="-90" y="80" width="230" height="90" as="geometry" />
        </mxCell>
      </root>
    </mxGraphModel>
  </diagram>
</mxfile>
